<svg width="200" height="200" viewBox="0 0 200 200" fill="none" xmlns="http://www.w3.org/2000/svg">
<path d="M151.857 112.007C150.419 110.784 145.652 111.167 144.102 111.82C140.751 113.232 138.56 115.262 136.111 117.846M136.111 117.846C135.841 118.131 135.567 118.423 135.288 118.722C134.059 120.04 133.601 121.882 132.926 123.505C132.648 124.173 128.836 128.302 131.074 126.66C133.358 124.984 134.449 121.831 136.387 119.753C137.03 119.064 137.81 118.278 138.652 117.545M136.111 117.846C136.96 117.751 137.807 117.652 138.652 117.545M136.111 117.846C128.864 118.654 121.531 119.162 114.631 121.688C109.637 123.517 106.337 125.404 103.199 129.929C102.25 131.297 101.689 133.823 101.185 135.435C100.987 136.068 100.7 136.746 100.477 137.358M138.652 117.545C139.694 116.64 140.831 115.818 141.927 115.364C143.967 114.519 146.613 114.737 148.759 114.788L151.892 114.864C152.808 114.886 150.092 115.227 149.212 115.487C145.771 116.502 142.229 117.094 138.652 117.545ZM100.477 137.358C99.9552 138.79 99.7781 139.86 101.879 139.154C104.872 138.148 107.864 136.512 111.066 136.281C113.859 136.08 116.15 134.679 119.024 134.516C123.526 134.26 109.626 133.484 105.523 135.381C103.874 136.143 102.169 136.727 100.477 137.358ZM100.477 137.358C99.4951 137.724 98.5172 138.106 97.5569 138.548C93.9872 140.189 89.5951 140.612 86.226 142.585C82.0323 145.042 79.7869 147.335 77.106 151.358C74.2863 155.589 68.8962 156.365 64.1792 157.658C59.1403 159.04 52.993 158.446 48.2665 161.03C45.3854 162.606 40.6175 162.666 37.3234 161.983C33.9755 161.289 34.1414 157.436 34.2083 154.661C34.385 147.33 37.3996 139.396 41.9764 133.69C42.7506 132.725 43.023 131.569 43.7239 130.558C44.2632 129.781 45.3082 129.339 45.6299 128.436C46.2781 126.616 47.595 125.472 48.381 123.768C49.3116 121.749 54.3135 118.82 52.2772 116.033C49.375 112.061 61.0846 112.199 63.184 112.249L85.0636 112.777C85.7414 112.793 89.1221 112.03 87.5676 112.943C79.8983 117.444 71.6879 118.975 67.104 127.366C64.2695 132.555 59.7984 136.512 56.6823 141.371C55.1566 143.75 62.4921 142.383 63.3765 142.193C70.7904 140.6 76.8517 135.096 83.307 131.46C89.116 128.187 95.9132 126.464 101.304 122.901L101.413 122.829C103.949 121.153 106.15 119.699 109.088 118.619C112.289 117.443 114.844 115.146 117.732 113.353C123.067 110.038 129.226 108.605 135.529 108.757C139.735 108.858 144.009 109.201 148.218 109.036C149.59 108.982 151.092 108.78 152.316 108.103C152.913 107.773 153.432 106.961 154.123 106.851C159.629 105.974 162.394 99.7789 158.138 95.2576C156.794 93.8289 154.732 92.9842 153.069 92.041C152.404 91.6637 150.309 90.8125 151.09 89.6129C151.203 89.4394 151.365 89.3594 151.565 89.354M151.565 89.354C151.817 89.3471 152.13 89.4603 152.475 89.655M151.565 89.354C151.868 89.4534 152.172 89.5537 152.475 89.655M151.565 89.354C147.494 88.0217 143.389 86.8314 139.447 84.9418C137.889 84.1952 136.826 82.8619 135.66 81.6239C134.988 80.9094 135.044 80.5102 135.453 80.3024M152.475 89.655C154.106 90.5728 156.488 93.2992 156.946 93.7742C157.53 94.3789 162.635 98.5156 162.913 97.6737C163.701 95.291 160.788 93.0018 159.022 92.1845C156.876 91.191 154.683 90.3928 152.475 89.655ZM135.453 80.3024C136.204 79.9208 138.143 80.1851 138.931 80.3274C139.294 80.3929 141.099 81.6265 142.342 82.3925M135.453 80.3024C136.895 80.7133 138.306 81.014 139.844 81.4867C140.085 81.561 141.356 82.0051 142.342 82.3925M135.453 80.3024C134.612 80.0626 133.76 79.7853 132.866 79.4142C129.498 78.0163 127.314 75.9068 124.621 73.5555C122.18 71.4242 119.837 68.6609 116.745 67.5999C114.333 66.7724 112.451 64.7732 110.724 62.9383L110.718 62.932C109.988 62.1568 108.713 62.0202 107.828 61.4341C106.061 60.2633 104.483 59.5675 102.891 58.1413C95.4175 51.4437 86.3608 46.8313 76.9619 43.5516C74.2214 42.5953 71.7387 41.4592 69.2088 40.0587C67.1777 38.9343 65.1185 38.7865 62.8795 38.1869C58.354 36.9752 54.9091 35.4029 50.0439 35.2856C48.114 35.2391 46.1727 33.9352 44.177 33.7424C42.7031 33.6 41.1938 33.644 39.7129 33.6083C38.8874 33.5884 36.8321 33.1633 36.6644 34.3547C36.4077 36.1792 36.3845 38.3637 36.523 40.2228C36.7596 43.3999 38.1708 46.446 39.2013 49.412C40.2165 52.3343 43.0689 55.1096 43.1137 58.34C43.1398 60.2169 44.482 61.1537 45.2533 62.782C45.8873 64.1203 45.6829 65.4521 46.6759 66.6248C48.4676 68.7409 49.5151 71.885 50.9858 74.24C52.0087 75.8781 52.9567 79.1808 53.3807 81.095C54.3087 85.2841 55.2283 86.3498 59.417 86.4508C67.2974 86.6408 75.1151 86.6884 82.9798 86.5163C85.6517 86.4578 88.2793 86.1944 90.954 86.2589C95.4693 86.3678 86.4506 87.458 85.464 87.5019C79.3538 87.7735 74.0399 87.0858 68.2368 89.0437C65.6077 89.9308 63.6907 92.5243 61.4267 94.1163C60.1869 94.9881 59.5957 95.7113 58.1865 96.3127C57.0728 96.788 55.9342 97.7639 57.393 98.8855C60.4641 101.247 67.5096 99.9758 71.1061 100.062C78.3815 100.238 85.7099 100.701 92.9883 100.484C102.934 100.187 113.866 101.947 123.536 99.0519C125.169 98.5632 132.42 97.2093 132.414 94.9284C132.402 90.3664 116.424 87.6673 113.588 86.9104C103.854 84.3123 93.9783 80.5739 86.4258 73.6133C82.4461 69.9455 78.1785 68.009 73.3967 65.735C70.8174 64.5085 68.4216 62.7974 65.8135 61.6908C62.1288 60.1273 59.2985 58.5411 57.302 54.9793M142.342 82.3925C142.989 82.7912 143.484 83.0632 143.543 82.9776C143.59 82.91 143.037 82.6653 142.342 82.3925Z" stroke="#A2FF86" stroke-width="24" stroke-linecap="round"/>
<path d="M79.2502 35.2501L150.583 70.9167C182.583 86.9167 182.583 113.083 150.583 129.083L79.2502 164.75C31.2502 188.75 11.6669 169.083 35.6669 121.167L42.9168 106.75C44.7502 103.083 44.7502 97 42.9168 93.3333L35.6669 78.8334C11.6669 30.9167 31.3335 11.2501 79.2502 35.2501Z" stroke="#4FC0D0" stroke-width="10" stroke-linecap="round" stroke-linejoin="round"/>
<path d="M45.3333 100H90.3333" stroke="#4FC0D0" stroke-width="10" stroke-linecap="round" stroke-linejoin="round"/>
</svg>
