<svg width="32" height="32" viewBox="0 0 32 32" fill="none" xmlns="http://www.w3.org/2000/svg">
<path d="M14 4C13.4766 4 12.9414 4.18359 12.5625 4.5625C12.1836 4.94141 12 5.47656 12 6V7H6V9H7V25C7 26.6445 8.35547 28 10 28H22C23.6445 28 25 26.6445 25 25V9H26V7H20V6C20 5.47656 19.8164 4.94141 19.4375 4.5625C19.0586 4.18359 18.5234 4 18 4H14ZM14 6H18V7H14V6ZM9 9H23V25C23 25.5547 22.5547 26 22 26H10C9.44531 26 9 25.5547 9 25V9ZM11 12V23H13V12H11ZM15 12V23H17V12H15ZM19 12V23H21V12H19Z" fill="black"/>
</svg>
